<?xml version="1.0" standalone="no"?>
<!DOCTYPE svg PUBLIC "-//W3C//DTD SVG 20010904//EN"
 "http://www.w3.org/TR/2001/REC-SVG-20010904/DTD/svg10.dtd">
<svg version="1.0" xmlns="http://www.w3.org/2000/svg"
 width="700.000000pt" height="700.000000pt" viewBox="0 0 700.000000 700.000000"
 preserveAspectRatio="xMidYMid meet">
<metadata>
Created by potrace 1.11, written by Peter Selinger 2001-2013
</metadata>
<g transform="translate(0.000000,700.000000) scale(0.100000,-0.100000)"
fill="#000000" stroke="none">
<path d="M2521 6527 c-26 -9 -59 -29 -73 -45 -20 -22 -219 -357 -340 -572 -14
-25 -81 -139 -148 -255 -67 -115 -131 -226 -142 -245 -11 -19 -46 -80 -78
-135 -32 -55 -67 -116 -78 -135 -11 -19 -55 -96 -98 -170 -71 -124 -78 -140
-78 -190 0 -61 22 -112 108 -249 15 -22 26 -44 26 -48 0 -3 6 -14 14 -22 7 -9
27 -41 43 -71 17 -30 61 -107 98 -170 85 -145 125 -216 125 -224 0 -3 -184 -6
-409 -6 -439 0 -449 -1 -505 -53 -24 -23 -116 -178 -653 -1107 -327 -565 -313
-539 -317 -587 -4 -55 10 -98 64 -188 26 -44 57 -96 67 -115 21 -38 550 -946
638 -1095 29 -49 80 -137 114 -195 33 -58 73 -118 87 -134 58 -61 9 -59 1044
-59 1032 0 983 -2 1042 58 22 22 163 259 325 545 51 89 94 159 101 164 6 3
162 -255 257 -423 11 -20 22 -38 25 -41 3 -3 11 -17 19 -32 7 -15 41 -71 75
-124 51 -83 68 -102 108 -122 l47 -24 938 0 c516 1 948 3 960 6 33 7 76 32
100 58 18 19 84 129 190 317 14 24 115 200 225 390 110 190 260 450 333 576
73 127 142 246 153 265 47 78 56 105 55 156 0 29 -7 65 -15 81 -24 47 -79 144
-120 211 -21 34 -38 64 -38 67 0 2 -20 37 -43 77 -68 114 -494 849 -550 948
-82 148 -173 299 -191 319 -11 13 -40 32 -62 42 -39 18 -74 19 -458 19 -229 1
-416 2 -416 4 0 2 50 91 111 198 62 106 134 231 161 278 26 47 53 92 58 100
39 62 69 121 80 154 25 76 21 83 -230 521 -362 629 -706 1216 -725 1236 -13
15 -41 34 -62 44 -36 17 -94 18 -977 19 -870 1 -942 0 -985 -17z m1613 -399
c-52 -90 -98 -170 -103 -178 -6 -8 -19 -31 -29 -50 -14 -26 -440 -763 -561
-971 l-15 -26 -804 -1 c-671 0 -802 2 -798 14 3 7 44 80 92 161 48 81 99 171
115 198 28 51 517 895 563 973 l26 42 804 0 805 0 -95 -162z m432 -168 c59
-102 117 -203 130 -225 12 -22 142 -247 288 -499 l265 -459 -24 -41 c-13 -23
-108 -187 -211 -366 -227 -393 -244 -424 -244 -464 0 -55 40 -118 90 -143 44
-23 49 -23 442 -23 219 0 398 -3 398 -6 0 -5 -87 -159 -147 -259 -7 -11 -15
-26 -19 -34 -4 -8 -36 -64 -72 -125 -36 -61 -75 -129 -87 -151 -13 -22 -65
-112 -115 -200 -51 -88 -104 -180 -118 -205 -13 -25 -28 -49 -32 -55 -5 -5
-21 -33 -37 -61 -15 -28 -59 -105 -98 -172 l-69 -122 -738 0 -737 0 -19 43
c-46 102 -148 178 -269 200 -261 49 -488 -178 -438 -437 51 -267 352 -395 579
-245 52 35 115 107 135 157 l13 31 737 0 736 0 62 -107 c33 -59 175 -303 313
-542 139 -239 266 -459 282 -488 17 -30 56 -99 89 -153 l58 -99 -804 0 -804 0
-99 167 c-147 249 -332 563 -345 587 -38 69 -95 106 -159 106 -89 -1 -107 -20
-260 -285 -77 -132 -152 -262 -167 -290 -46 -83 -93 -156 -98 -152 -4 4 -106
181 -161 277 -37 67 -271 473 -282 490 -19 32 -103 176 -122 209 -11 20 -68
118 -125 218 -61 105 -103 189 -100 197 3 8 90 160 193 338 102 178 263 457
358 620 l171 297 65 0 c116 0 216 44 290 128 159 181 110 460 -100 579 -49 28
-150 52 -195 47 -17 -2 -45 -5 -64 -7 -18 -2 -63 -19 -99 -37 -194 -99 -262
-356 -141 -537 28 -42 28 -42 10 -75 -10 -17 -61 -106 -113 -197 -53 -91 -105
-181 -116 -200 -10 -19 -79 -138 -151 -263 -73 -126 -140 -243 -150 -260 -10
-18 -55 -96 -101 -175 l-82 -142 -804 0 c-442 0 -804 2 -804 4 0 2 53 96 118
208 65 111 132 226 148 254 16 29 115 198 219 378 105 179 199 343 210 363 11
21 40 71 63 111 l43 72 471 0 c451 0 473 1 513 20 60 29 90 88 86 170 -1 14
-91 180 -201 369 -110 189 -200 345 -200 347 0 2 362 4 804 4 l804 0 44 -77
c51 -90 532 -923 559 -968 10 -16 29 -51 43 -76 14 -26 39 -68 55 -95 l31 -48
-21 -30 c-86 -130 -91 -297 -13 -419 38 -58 64 -85 114 -116 151 -96 328 -83
458 34 156 140 170 371 32 528 -74 83 -173 128 -285 129 l-70 0 -172 297 c-94
163 -255 442 -358 620 -103 178 -190 331 -192 340 -2 9 76 156 175 326 98 171
239 414 312 540 73 127 142 246 152 265 109 191 152 260 159 253 4 -4 55 -91
115 -193z m1399 -2415 c15 -27 58 -102 95 -165 37 -63 77 -131 88 -150 11 -19
61 -107 112 -195 51 -88 101 -176 112 -195 11 -19 37 -64 58 -100 166 -286
295 -514 293 -519 -1 -4 -110 -195 -244 -426 -133 -231 -250 -433 -259 -450
-125 -219 -284 -492 -290 -498 -6 -7 -164 256 -270 448 -12 22 -26 45 -30 50
-4 6 -21 35 -38 65 -16 30 -94 165 -172 300 -147 253 -159 274 -202 350 -14
25 -41 71 -61 104 l-35 58 24 42 c13 22 53 93 89 156 37 63 70 122 76 130 5 8
40 69 78 135 37 66 126 219 196 340 70 121 138 240 152 265 102 183 187 320
193 313 4 -4 20 -30 35 -58z m-3959 -1529 c25 -44 55 -97 67 -116 11 -19 31
-55 45 -80 14 -25 71 -124 127 -220 56 -96 189 -326 295 -510 106 -184 200
-345 208 -357 l14 -23 -804 0 -805 0 -108 188 c-59 103 -116 199 -126 214 -11
15 -19 30 -19 32 0 3 -19 36 -41 73 -23 38 -54 91 -69 118 -15 28 -65 113
-110 190 -128 217 -330 566 -330 569 0 2 362 4 805 4 l804 -1 47 -81z"/>
</g>
</svg>
