<svg id="Layer_1" data-name="Layer 1" xmlns="http://www.w3.org/2000/svg" viewBox="0 0 1024 1024"><defs><style>.cls-1{fill:#00b3c4;}</style></defs><title>Artboard 1</title><path class="cls-1" d="M1018.07,683.83l-132.27-229a29.51,29.51,0,0,0-25.49-14.72l-116.33,0L801.8,340a29.49,29.49,0,0,0,0-29.43l-132.26-229A29.51,29.51,0,0,0,644,66.84l-265,0a29.49,29.49,0,0,0-25.46,14.68l-132.69,229a29.51,29.51,0,0,0,0,29.56l58.26,100.08-115.08,0a29.54,29.54,0,0,0-25.46,14.68L6,684a29.48,29.48,0,0,0,0,29.57l133.29,229a29.51,29.51,0,0,0,25.44,14.62l264.47,0a29.5,29.5,0,0,0,25.49-14.72l57.19-99.1,58.67,99.33a29.56,29.56,0,0,0,25.35,14.46L860.4,957a29.49,29.49,0,0,0,25.49-14.72l132.18-229A29.53,29.53,0,0,0,1018.07,683.83ZM383.25,103.61l235.38,0L501.26,307,265.42,307ZM50.55,717.1l235.77-.05L403.78,920.4l-234.87,0Zm481.77,88.61A24,24,0,0,0,511.74,794h-.12A24,24,0,0,0,491,805.91L435.57,902,318.12,698.68,425.29,513a55.4,55.4,0,1,0-31.8-18.37L286.32,680.33l-235.84,0L168.31,477l133.18,0A23.9,23.9,0,0,0,322.14,441l-56.65-97.32,235.77-.05L608.52,529.36A55.38,55.38,0,1,0,640.32,511L533.06,325.31,650.44,121.92,767.89,325.26,701.08,441a23.89,23.89,0,0,0,20.7,35.84l113.12,0L717.53,680.25l-215.51,0A55.38,55.38,0,1,0,502,717l215.52,0L835,920.31l-235,.05ZM866.79,902,749.34,698.6,866.71,495.22,984.16,698.56Z"/></svg>